<svg width="152" height="152" viewBox="0 0 152 152" fill="none" xmlns="http://www.w3.org/2000/svg">
  <rect width="152" height="152" rx="76" fill="#E7C7A8"/>
  <path d="M25 72C25 39 46 20 77 20C109 20 129 41 129 74C129 108 108 135 76 135C44 135 25 106 25 72Z" fill="#171312"/>
  <path d="M35 84C37 50 52 30 77 30C101 30 117 50 118 84C111 64 98 54 77 54C56 54 43 64 35 84Z" fill="#271C18"/>
  <path d="M43 82C43 55 57 38 77 38C97 38 110 55 110 82C110 108 95 126 77 126C58 126 43 108 43 82Z" fill="#F0B98E"/>
  <path d="M45 76C41 72 36 73 35 80C34 88 39 94 45 94V76Z" fill="#E9AC82"/>
  <path d="M109 76C113 72 118 73 119 80C120 88 115 94 109 94V76Z" fill="#E9AC82"/>
  <path d="M50 58C59 43 80 34 103 53C93 52 79 49 68 43C64 52 56 57 50 58Z" fill="#171312"/>
  <circle cx="63" cy="80" r="4" fill="#201717"/>
  <circle cx="92" cy="80" r="4" fill="#201717"/>
  <path d="M75 82L70 98H81" stroke="#BD7D5C" stroke-width="3" stroke-linecap="round" stroke-linejoin="round"/>
  <path d="M62 107C69 115 84 115 91 107" stroke="#7F2D2B" stroke-width="4" stroke-linecap="round"/>
  <path d="M52 70C58 66 65 66 70 70" stroke="#171312" stroke-width="4" stroke-linecap="round"/>
  <path d="M84 70C90 66 97 66 102 70" stroke="#171312" stroke-width="4" stroke-linecap="round"/>
</svg>
